<svg xmlns="http://www.w3.org/2000/svg" width="256" height="256" viewBox="0 0 100 100"><rect width="100" height="100" rx="50" fill="#6f6ee7"></rect><path d="M18.25 73.37Q17.24 73.37 17.24 72.30L17.24 72.30L17.24 27.57Q17.24 27.07 17.43 26.85Q17.62 26.63 18.12 26.63L18.12 26.63L26.38 26.63Q26.94 26.63 27.19 26.78Q27.45 26.94 27.57 27.38L27.57 27.38L40.17 60.46Q40.36 61.03 40.61 61.03L40.61 61.03Q40.80 61.03 41.12 60.40L41.12 60.40L53.53 27.64Q53.91 26.63 54.66 26.63L54.66 26.63L63.23 26.63Q64.05 26.63 64.05 27.57L64.05 27.57L64.05 72.24Q64.05 72.87 63.80 73.12Q63.55 73.37 62.92 73.37L62.92 73.37L57.50 73.37Q56.93 73.37 56.68 73.15Q56.43 72.93 56.43 72.37L56.43 72.37L56.43 37.84Q56.43 37.53 56.30 37.56Q56.17 37.59 56.05 37.90L56.05 37.90L43.07 72.49Q42.76 73.37 41.87 73.37L41.87 73.37L38.09 73.37Q37.15 73.37 36.77 72.55L36.77 72.55L24.04 38.28Q23.92 37.84 23.76 37.87Q23.60 37.90 23.60 38.28L23.60 38.28L23.60 72.49Q23.60 73.00 23.41 73.18Q23.23 73.37 22.66 73.37L22.66 73.37L18.25 73.37ZM76.02 26.63L81.94 26.63Q82.76 26.63 82.76 27.57L82.76 27.57L82.76 72.18Q82.76 72.87 82.48 73.12Q82.19 73.37 81.44 73.37L81.44 73.37L76.27 73.37Q75.64 73.37 75.39 73.15Q75.14 72.93 75.14 72.37L75.14 72.37L75.14 27.57Q75.14 26.63 76.02 26.63L76.02 26.63Z" fill="#fff"></path></svg>